<svg xmlns="http://www.w3.org/2000/svg" width="105" height="105" viewBox="0 0 105 105"><defs><style>.a{fill:#ff7900;}.b{fill:#fff;}</style></defs><rect class="a" width="105" height="105"/><path class="b" d="M96.2,233.648a9.132,9.132,0,0,1-5.11,1.541,4.3,4.3,0,0,1-4.6-4.505c0-3.471,3.192-5.311,9.769-6.054v-.861c0-1.128-.857-1.781-2.437-1.781a4.623,4.623,0,0,0-3.778,1.781L87.292,222.2q2.17-3.031,6.612-3.027c4.041,0,6.29,1.749,6.29,4.6v11.243H96.577Zm-5.72-3.263a1.871,1.871,0,0,0,1.84,2.017,5.688,5.688,0,0,0,3.782-1.635V227.1c-3.813.484-5.621,1.462-5.621,3.3Z" transform="translate(-54.626 -139.653)"/><path class="b" d="M129.54,219.887l3.377-.468.37,1.84c1.907-1.4,3.42-2.139,5.327-2.139,3.192,0,4.835,1.694,4.835,5.048v10.8h-4.077V224.879c0-1.9-.5-2.752-1.966-2.752a6.024,6.024,0,0,0-3.817,1.722v11.125H129.54Z" transform="translate(-81.823 -139.623)"/><path class="b" d="M222.42,235.261c-4.572,0-7.3-2.937-7.3-8.039s2.752-8.1,7.233-8.1,7.135,2.85,7.135,7.894c0,.267-.031.535-.031.786H219.13c.031,2.937,1.25,4.419,3.652,4.419a3.977,3.977,0,0,0,3.518-1.966l2.992,1.659C227.975,234.105,225.608,235.261,222.42,235.261Zm3.058-10.087a2.951,2.951,0,0,0-3.125-3.294c-1.84,0-2.992,1.179-3.145,3.294Z" transform="translate(-136.681 -139.623)"/><path class="b" d="M23.044,235.357c-4.037,0-7.674-2.571-7.674-8.185S19.006,219,23.044,219s7.673,2.575,7.673,8.185S27.077,235.357,23.044,235.357Zm0-12.918c-3.047,0-3.613,2.752-3.613,4.717s.566,4.737,3.613,4.737,3.613-2.752,3.613-4.737-.566-4.717-3.613-4.717Z" transform="translate(-9.328 -139.55)"/><path class="b" d="M61.53,219.507h3.88v1.824a6.011,6.011,0,0,1,4.273-2.142,3.389,3.389,0,0,1,.527.027v3.829h-.2c-1.777,0-3.719.275-4.324,1.655v10.315H61.53Z" transform="translate(-38.787 -139.664)"/><path class="b" d="M179.252,231.677c3.1-.024,3.357-3.172,3.357-5.232,0-2.422-1.179-4.395-3.385-4.395-1.466,0-3.1,1.069-3.1,4.564C176.123,228.532,176.257,231.7,179.252,231.677Zm7.28-12.234v14.683c0,2.595-.2,6.86-7.591,6.907-3.047,0-5.873-1.2-6.439-3.864l4.029-.649c.169.763.633,1.525,2.917,1.525,2.119,0,3.145-1.014,3.145-3.44v-1.8l-.055-.055A4.079,4.079,0,0,1,178.533,235c-3.613,0-6.463-2.508-6.463-7.752,0-5.185,2.937-8.086,6.235-8.09,3.094,0,4.242,1.4,4.505,2.146h-.047l.334-1.856Z" transform="translate(-108.711 -139.647)"/><path class="b" d="M249.487,205.734h-1.6v4.442h-.849v-4.442h-1.6v-.684h4.057Zm6.683,4.442h-.845V205.9H255.3l-1.679,4.281h-.535l-1.679-4.281h-.024v4.281h-.845v-5.11h1.305l1.529,3.892,1.506-3.892h1.293Z" transform="translate(-155.076 -129.594)"/></svg>